<?xml version="1.0" encoding="UTF-8"?><svg enable-background="new 0 0 1366 321" version="1.1" viewBox="0 0 1366 321" xml:space="preserve" xmlns="http://www.w3.org/2000/svg"><path d="m133.44 109.81c-11.563 6.141-18.192 18.179-19.875 36.115-0.72293 6.6111-1.0844 14.401-1.0844 23.369 0 20.774 1.2029 35.175 3.6137 43.197 1.6829 4.7242 5.059 15.346 10.118 31.866 0.95996 3.7786 1.4454 7.0812 1.4454 9.9136 0 14.871-6.3859 29.62-19.152 44.26-11.083 12.979-26.504 19.474-46.254 19.474-11.563 0-21.806-2.2458-30.716-6.7276-11.326-5.665-16.984-13.576-16.984-23.722 0-6.6111 2.0439-12.985 6.1434-19.12 1.4454 1.8863 3.8507 3.187 7.2268 3.8951-1.9308 4.9568-2.8907 8.852-2.8907 11.684 0 9.2055 4.4551 16.05 13.37 20.536 6.7414 3.7727 15.296 5.665 25.657 5.665 10.598 0 20.355-3.425 29.27-10.268 8.6727-6.8491 13.009-15.463 13.009-25.848 0-5.4328-2.1683-12.514-6.5044-21.244-6.2674-12.979-10.118-23.838-11.563-32.574-0.96539-3.7732-1.5698-7.7893-1.8068-12.038l-3.2522 3.8946-3.2522 3.187c-2.4108 2.8325-4.2176 4.9568-5.4205 6.373l-5.7815 6.3736c-1.4454 1.4162-3.6137 4.1327-6.5044 8.1433l-6.5044 8.1438c-5.302 6.8491-9.1586 12.747-11.563 17.704-18.068-13.217-28.547-31.745-31.439-55.59-1.2078-9.4381-1.8068-19.59-1.8068-30.45 0-13.687 0.84144-25.372 2.5298-35.053 0.23703-3.7732 0.95996-8.1438 2.1683-13.101 2.1678-2.3569 4.4546-4.7193 6.8659-7.0817 1.6824-1.4162 3.8507-3.1865 6.5044-5.3109l8.6722-6.0195c0.47998-0.4701 1.3214-1.0622 2.5298-1.7703l1.4454-1.0622 1.8068-1.4162c0.72293-0.70811 2.0439-1.7703 3.9751-3.187l2.5293-1.7703 2.5298-1.7703c4.5731-3.5406 8.9097-6.8436 13.009-9.9141 3.6137-2.5944 6.6229-5.0729 9.0337-7.4352l3.6137-3.5411c0.47998 0.47603 1.8068 1.7708 3.9751 3.8951l2.5293 2.1244 2.8907 2.8325c15.415 13.223 26.498 19.828 33.245 19.828 1.4459 0 5.059-1.2948 10.841-3.8951 0 2.1248 0.5985 4.6033 1.8068 7.4357zm-41.556 15.225c-9.6381-5.1894-17.108-10.5-22.404-15.933-0.96539-0.70811-2.2922-1.8863-3.9746-3.5406l-2.5298-2.1244-2.5293-2.4789c-8.1927 6.8491-13.495 12.869-15.9 18.058-2.6537 5.6649-4.3361 13.339-5.059 23.015-0.48541 9.4435-0.72244 18.412-0.72244 26.909 0 28.564 6.5044 48.508 19.513 59.838 9.3952-11.33 16.019-18.998 19.875-23.015l1.8068-1.7703 1.8068-1.7703c1.4454-1.4162 2.7668-2.833 3.9751-4.2492 0-18.882 0.95947-36.47 2.8907-52.757 0.72242-5.6649 1.8068-12.393 3.2522-20.182z"/><path d="m219.08 235.15c-8.1927 4.4872-14.217 8.8519-18.068 13.101-3.8561 4.4872-7.7128 10.739-11.563 18.766-4.0991-7.7893-6.7469-12.393-7.9498-13.809-3.1337-4.2487-6.8659-8.0219-11.202-11.33-0.96539-0.70811-2.5298-1.7703-4.6976-3.1865l-5.782-3.5411c7.9498-4.9568 13.969-9.4381 18.068-13.455 2.6483-2.8325 6.5044-9.084 11.563-18.766 5.782 11.806 12.162 20.182 19.152 25.139 2.6483 2.3624 6.143 4.7247 10.48 7.0812z"/><path d="m363.62 163.98c0 18.179-6.5044 35.645-19.513 52.403-2.4112 3.3085-9.6381 11.214-21.682 23.723-0.96539 0.94614-3.0152 3.1865-6.1429 6.7271-3.6137 4.2492-7.8318 9.3225-12.648 15.225-14.697-8.7305-29.033-15.696-43.002-20.89-5.302-1.6488-10.48-3.065-15.539-4.2487 5.059-4.2492 8.1873-8.0224 9.3956-11.33 1.2024-2.833 1.8068-7.5518 1.8068-14.163v-12.038c-0.24295-1.6483-0.36147-3.1865-0.36147-4.6028v-12.393c0-9.4381-0.60442-27.38-1.8068-53.819-0.72293-5.4274-2.7722-11.684-6.1429-18.766 21.196-6.6056 40.472-17.349 57.817-32.221l3.6137 3.8951c2.6478 3.0705 7.1029 6.8491 13.37 11.33 11.32 8.2653 20.716 18.766 28.186 31.512 8.4298 13.931 12.647 27.147 12.647 39.657zm-25.295 20.182c0-20.06-7.3513-38.826-22.042-56.297-4.822-5.8975-9.9996-10.739-15.539-14.517-3.3766-2.3564-9.5196-5.4269-18.429-9.2055-0.24295 5.4328-0.36148 11.098-0.36148 16.995v55.944c0 2.8325 0.11853 5.5489 0.36148 8.1433l0.72293 14.871c0 3.07 0.23703 10.036 0.72244 20.89 1.2029 0.47603 3.0092 1.3002 5.4205 2.4784l2.8907 1.4167 3.6137 1.4162c6.019 2.8325 11.563 5.4328 16.622 7.7893l3.9752 1.7703c14.691-13.455 22.042-30.683 22.042-51.695z"/><path d="m533.82 227.71c-10.604 10.622-20.598 22.074-29.993 34.345-6.0249-4.4867-12.529-10.385-19.514-17.704-1.2083-2.8325-1.8068-6.8436-1.8068-12.038v-19.828c0-1.4167 0.11899-4.7193 0.36145-9.9141v-7.7898c0.23703-3.5406 0.36148-6.8436 0.36148-9.9141l1.0839-32.928c0.23752-3.3031 0.36148-6.6061 0.36148-9.9141v-7.4357c0-13.455-5.9059-23.485-17.706-30.096l-9.7566 4.2487-13.009 6.373-8.6722 4.2492-0.36145 18.412c-0.24295 6.3736-0.60443 16.409-1.0839 30.096l-0.36145 11.684c-0.24295 2.6004-0.36148 6.6111-0.36148 12.038v15.225c0 14.401 1.6824 23.49 5.059 27.264 0.72293 0.94612 2.7668 2.6004 6.1429 4.9573-9.1581 5.665-15.781 11.098-19.875 16.287l-5.7815 6.7276c-3.8566-4.9568-9.7566-11.093-17.707-18.412-1.2083-0.9407-3.1337-2.1244-5.7815-3.5406 6.019-6.8436 9.7566-15.579 11.202-26.201 1.4454-9.6761 2.1683-32.807 2.1683-69.398 0-18.412-3.0152-30.212-9.0342-35.407-2.6537-2.3569-6.1429-4.7193-10.48-7.0817 9.1527-6.135 18.305-14.395 27.464-24.785 10.598 7.7898 17.345 18.296 20.236 31.513l19.152-9.206c8.9097-4.4813 15.776-8.4974 20.598-12.038l14.093-9.9141c6.9844 11.098 18.068 20.304 33.245 27.618-1.4454 0.94614-2.5293 1.6542-3.2522 2.1244-3.8561 2.3624-6.3859 5.5489-7.5883 9.5601l-0.36151 1.7703-0.36145 2.4784c-0.24243 2.3624-0.48541 4.9568-0.72241 7.7898l-0.72293 10.976c-0.48541 9.9136-0.72244 18.295-0.72244 25.139v41.072c0 7.0817 0.47998 11.452 1.4454 13.101 1.4454 4.9568 4.2122 7.4357 8.3112 7.4357 2.6483 0 5.539-1.5328 8.6727-4.6033 0.72239 2.3624 2.4053 4.2492 5.059 5.6654z"/><path d="m648.01 100.25c-5.302 3.3085-10.243 7.4357-14.816 12.393-0.72296 0.70811-1.6883 1.7703-2.8912 3.187l-1.4454 1.7703-1.8068 2.1244-28.908-17.704-4.6976 2.1248v84.978c0 27.385 9.2708 41.072 27.824 41.072 5.7815 0 11.925-3.4191 18.429-10.268 0.47998 1.6542 1.9254 3.7786 4.3361 6.3736l-3.6136 3.5406c-0.72247 0.70811-1.9308 1.7703-3.6137 3.1865l-2.5292 2.1244-2.8908 2.4789-11.925 10.622c-0.7229 0.47603-5.302 5.1953-13.732 14.163-17.108-8.7295-28.31-17.703-33.606-26.909-5.059-9.2055-7.5883-25.493-7.5883-48.862l-0.36151-74.355c17.102-8.4974 33.364-20.182 48.784-35.053 9.8751 8.0278 18.186 13.809 24.934 17.35 0.95996 0.70811 2.5293 1.6542 4.6976 2.8325l2.5293 1.4162 2.8912 1.4162z"/><path d="m781.35 158.67c0 20.066-0.72296 38.478-2.1688 55.236-0.24292 2.3624-0.48486 5.3109-0.7229 8.8515l-0.72192 4.6033-0.36151 4.9568c-6.7473 8.9734-13.009 16.642-18.791 23.015-0.72192 0.70813-1.9308 1.8864-3.6127 3.5406l-2.1688 2.8325-2.8907 2.8325-18.429 19.12c-9.6381 9.4386-17.345 16.288-23.127 20.536l-2.8917 2.1244-3.2522 2.1243c-2.6538 1.8864-5.0585 3.5406-7.2264 4.9568-0.7229-2.1244-2.1688-4.1322-4.3366-6.0185 25.052-17.472 41.793-34.938 50.229-52.403 8.4293-17.704 12.647-43.198 12.647-76.48 0-21.006-1.9308-35.761-5.7815-44.259-4.0996-9.206-12.287-17.936-24.573-26.201l-18.79 13.455-0.7229 22.661c-0.24298 2.1243-0.36151 6.373-0.36151 12.747v59.13c0 4.4867 1.3215 8.7354 3.9752 12.747 3.1278 4.2487 6.6229 6.3731 10.48 6.3731 2.4048 0 5.9-1.8863 10.48-5.665 0.72192 1.1836 1.4448 2.1244 2.1678 2.8325 0.72296 1.1841 1.6829 2.2463 2.8908 3.1865-6.5044 4.4872-17.47 13.339-32.883 26.556-4.5796-3.7786-13.252-9.5601-26.018-17.35l-2.5293-1.0622-2.5297-1.4162c-2.4108-0.9407-4.4601-1.7703-6.1429-2.4784 1.6829-1.6488 3.2522-3.1865 4.6976-4.6032 0.95996-0.94022 1.8068-1.8863 2.5297-2.8325 2.1678-2.8325 3.3707-5.8975 3.6137-9.206 1.2024-6.373 1.9254-17.819 2.1678-34.345v-35.407c0-13.455 0.11853-22.423 0.36145-26.91l0.36145-9.5596c0.23706-10.147 0.23706-23.015 0-38.594-0.24292-18.412-2.1683-32.336-5.7819-41.78-1.6879-4.4813-4.0991-10.03-7.2269-16.641 2.6478-0.70812 4.9346-2.0029 6.8659-3.8951 5.296 7.7898 9.1522 14.755 11.563 20.89 8.4298-17.466 22.404-28.912 41.918-34.345 0.47998 2.6004 1.5634 4.9573 3.2522 7.0817-10.361 5.6649-16.747 14.517-19.152 26.555-1.6888 8.7354-2.7732 19.712-3.2532 32.929-0.242 4.4867-0.36053 14.401-0.36053 29.742-0.24292 2.3624-0.36145 6.495-0.36145 12.393l19.513-13.809c4.3366-2.5944 9.8751-7.0817 16.622-13.455 1.4448-1.8863 3.2522-4.0112 5.42-6.3735 1.6829 6.6116 6.5044 14.285 14.455 23.015 9.3951 10.39 15.295 18.766 17.707 25.139 2.1677 5.9034 3.2522 16.88 3.2522 32.929z"/><path d="m957.33 220.28c-10.841 11.806-18.791 21.244-23.85 28.326l-2.1688 2.832-2.1678 3.187c-1.9308 2.8325-3.4952 5.3114-4.6981 7.4357-8.9152-9.4386-14.815-18.058-17.706-25.848-2.8907-7.0812-5.0595-17.111-6.5044-30.096l-10.48 12.038c-1.2088 1.4162-3.2522 3.7786-6.1429 7.0817l-1.8074 2.1244-2.1678 2.1243c-1.6888 1.8923-3.2522 3.6626-4.6981 5.3109-0.9649 0.94614-4.3356 4.6033-10.118 10.976-1.2078 1.1841-3.1337 3.4241-5.7814 6.7276l-0.72296 1.0617-1.4449 1.4172-6.1429 7.0812c-6.7473-5.6649-11.564-10.738-14.455-15.225-2.4108-3.7727-5.0595-10.03-7.9503-18.766-5.0585-15.342-7.5878-33.515-7.5878-54.527 0-22.423 1.8063-40.718 5.42-54.881 5.7815-5.1894 11.924-9.9141 18.429-14.163 1.9258-1.1787 5.178-3.3031 9.7566-6.3736l3.2532-1.7703 3.2522-2.4784c2.6478-1.6488 5.0585-3.1865 7.2263-4.6033 5.0596-3.3026 9.7566-6.019 14.093-8.1434 1.2029-0.70811 3.4892-1.8868 6.8658-3.5411l2.1678 1.7708 1.8074 1.7703 3.2522 2.8325c9.6321 8.2653 17.464 13.809 23.488 16.641 3.3707 1.4162 6.5044 2.1244 9.3951 2.1244 4.3366 0 9.8751-2.2404 16.622-6.7271 0.95996 1.6542 2.5292 3.7786 4.6981 6.373-0.72296 0.70861-1.8074 1.5382-3.2522 2.4789l-4.3366 3.1865c-4.0996 2.8325-6.6288 4.8408-7.5888 6.019-3.1337 2.6004-4.8215 5.4328-5.0585 8.4979-0.72296 3.7786-1.0844 8.4979-1.0844 14.163v32.221l-0.36145 7.4357c-0.24298 14.163 0.47998 26.201 2.1678 36.115 0.95996 6.6111 3.7322 9.9136 8.3117 9.9136 1.4459 0 3.4893-0.9402 6.1429-2.8325l7.2274-5.3109c0.95995 2.3624 2.5293 4.3707 4.698 6.019zm-55.288-98.078c-8.9152-4.4813-17.707-9.7922-26.379-15.933-3.1337-2.3569-6.5044-4.9573-10.118-7.7898-2.4108 2.3624-5.5444 6.7276-9.3951 13.101-1.9308 4.0166-3.8566 11.806-5.7815 23.369-1.4459 9.9141-2.1688 19.596-2.1688 29.034 0 21.482 3.3707 40.364 10.118 56.651 0.72296 1.6542 3.0093 5.7869 6.8659 12.393l3.6136-3.8946c1.6829-1.8868 8.0688-8.968 19.152-21.245 0.72296-0.70811 1.8073-1.8863 3.2522-3.5406l2.1688-2.4784 2.5292-2.833c1.2029-1.1782 2.6478-2.9485 4.3366-5.3109v-29.742c-0.24292-1.4167-0.36145-2.711-0.36145-3.8951v-2.8325c-2e-5 -4.2487 0.72295-15.933 2.1678-35.053z"/><path d="m1070.4 103.08c-9.1581 7.5572-15.42 13.809-18.79 18.766l-2.8908 3.5406-2.8908 3.8951c-4.5796-5.4274-8.3118-9.206-11.203-11.33-3.3766-2.595-8.0736-4.8353-14.093-6.7276v100.91c0 3.7791 0.11847 6.0195 0.36145 6.7276 0.237 0.70813 1.5644 2.2463 3.9751 4.6028 1.9249 2.3624 4.6971 4.1332 8.3108 5.3114 1.9258 1.4162 3.9751 2.1244 6.1439 2.1244 1.9248 0 5.177-1.8863 9.7566-5.665 0.23706-0.23257 0.72192-0.70811 1.445-1.4167l1.0844-0.70813 1.4448-1.0622c0.72302 0.94612 2.5303 2.7164 5.421 5.3114-13.495 12.985-24.816 24.553-33.968 34.699l-16.984-12.039c-8.4352-5.6649-14.336-9.4381-17.707-11.33-1.4449-0.4706-4.9401-2.2409-10.479-5.3114 3.3707-2.1244 6.9844-4.7188 10.84-7.7893 2.1688-3.3031 3.2522-15.104 3.2522-35.407v-50.987c-0.72192-14.871-3.4951-24.547-8.3107-29.034-2.4108-2.3569-5.9059-4.8353-10.48-7.4357l6.5044-7.4352c2.4048-3.3031 6.9844-9.206 13.732-17.704 11.078 5.9034 19.389 13.577 24.933 23.015 8.4302-6.135 14.573-11.446 18.43-15.933 0.7229-0.70812 1.6829-1.7703 2.8908-3.1865l1.4458-1.7703 1.8064-2.1248c7.2273 12.985 15.9 21.483 26.018 25.494z"/><path d="m1205.2 163.98c0 18.179-6.5044 35.645-19.513 52.403-2.4108 3.3085-9.6382 11.214-21.682 23.723-0.96497 0.94614-3.0143 3.1865-6.1429 6.7271-3.6136 4.2492-7.8308 9.3225-12.647 15.225-14.697-8.7305-29.033-15.696-43.002-20.89-5.3015-1.6488-10.48-3.065-15.538-4.2487 5.0585-4.2492 8.1863-8.0224 9.3951-11.33 1.2029-2.833 1.8063-7.5518 1.8063-14.163v-12.038c-0.24292-1.6483-0.36145-3.1865-0.36145-4.6028v-12.393c0-9.4381-0.60339-27.38-1.8063-53.819-0.72302-5.4274-2.7722-11.684-6.1429-18.766 21.196-6.6056 40.472-17.349 57.817-32.221l3.6138 3.8951c2.6487 3.0705 7.1028 6.8491 13.37 11.33 11.321 8.2653 20.716 18.766 28.186 31.512 8.4292 13.931 12.647 27.147 12.647 39.657zm-25.295 20.182c0-20.06-7.3518-38.826-22.043-56.297-4.8215-5.8975-9.9996-10.739-15.538-14.517-3.3767-2.3564-9.5196-5.4269-18.43-9.2055-0.24194 5.4328-0.36047 11.098-0.36047 16.995v55.944c0 2.8325 0.11853 5.5489 0.36047 8.1433l0.7229 14.871c0 3.07 0.23706 10.036 0.7229 20.89 1.203 0.47603 3.0093 1.3002 5.42 2.4784l2.8917 1.4167 3.6127 1.4162c6.0195 2.8325 11.564 5.4328 16.622 7.7893l3.9752 1.7703c14.692-13.455 22.043-30.683 22.043-51.695z"/><path d="m1357.3 165.04c0 14.638-6.0244 30.572-18.068 47.8-2.6537 3.7786-7.7123 8.9734-15.177 15.579l-9.3951 8.4979-9.3961 8.8515-1.0834 1.0622-1.0844 1.0622c-1.2079 1.1841-2.4108 2.3624-3.6138 3.5406-3.1337 3.3036-6.5044 6.8441-10.118 10.623-8.6722-8.2604-16.261-13.925-22.765-16.996-5.0586-2.5944-13.732-5.7815-26.018-9.5601 3.6138-3.0646 5.9-5.3109 6.866-6.7271 2.1677-2.8325 3.3707-5.8975 3.6136-9.206 0.23706-1.1782 0.36145-4.1272 0.36145-8.852l0.72192-77.542c0-4.4813-0.72192-9.206-2.1678-14.163-1.9307-6.8436-4.5795-10.268-7.9502-10.268-1.9308 0-4.9401 1.5382-9.0337 4.6028-0.7229-2.3564-2.0493-4.4813-3.9751-6.373 4.5736-4.0112 7.9502-7.4357 10.118-10.268l5.421-5.3109c3.3707-3.3031 7.7063-8.0224 13.009-14.163 7.9492 6.3736 13.127 11.098 15.538 14.163 4.0936 5.1948 6.6229 11.568 7.5888 19.12 10.841-7.3138 19.75-14.041 26.741-20.182 3.3707-3.3026 8.0678-7.5513 14.093-12.747l0.72192 2.833c0.23694 1.4162 1.4458 4.9568 3.6136 10.622 2.1688 3.308 7.1029 10.622 14.816 21.952 11.078 16.763 16.622 34.113 16.622 52.049zm-23.85 16.641c0-10.384-2.2922-20.536-6.8658-30.451l-0.7229-1.4162c1.4458 0 1.2029-1.0622-0.7229-3.1865-0.72192-0.94022-1.445-1.7703-2.1678-2.4784-0.48596-0.70811-0.96594-1.4162-1.4448-2.1244l-1.4459-1.7703c-0.96582-1.4167-4.9401-7.9058-11.924-19.474-1.9318-3.3031-3.9751-8.1438-6.1439-14.517-6.5044 4.9568-13.732 9.7976-21.681 14.517 0 0.70812-0.12439 2.3624-0.36145 4.9568-0.24292 2.3624-0.36145 4.0166-0.36145 4.9573v26.201c-0.24292 2.8325-0.36145 5.7869-0.36145 8.852v6.373c0 1.1841-0.12451 3.8951-0.36145 8.1438-0.24292 4.2487-0.36145 7.0812-0.36145 8.4979v15.579c-0.24207 2.8325-0.36047 5.7869-0.36047 8.852v6.7271l4.3356 2.1244c1.2029 0.47603 2.2874 0.94612 3.2522 1.4162 1.4458 0.70811 2.8908 1.4167 4.3366 2.1248l7.9503 4.2487 1.8064 0.70811 1.8063 1.0622c1.9259 0.70811 3.4902 1.4162 4.6981 2.1243 15.656-15.341 24.33-28.088 26.018-38.24 0.72288-4.0107 1.0843-8.6139 1.0843-13.809z"/></svg>
