<?xml version="1.0" encoding="utf-8"?>
<!-- Generator: Adobe Illustrator 21.0.0, SVG Export Plug-In . SVG Version: 6.00 Build 0)  -->
<svg version="1.1" xmlns="http://www.w3.org/2000/svg" xmlns:xlink="http://www.w3.org/1999/xlink" x="0px" y="0px"
	 viewBox="0 0 370 49.2" style="enable-background:new 0 0 370 49.2;" xml:space="preserve">
<style type="text/css">
	.st0{fill:#FFFFFF;}
	.st1{fill:#636466;}
</style>
<g>
	<path class="st0" d="M11.7,21.6L6,27.3l-5.7-5.7L6,15.8L11.7,21.6z M358,15.8l5.7,5.7l-5.7,5.7l-5.7-5.7L358,15.8z"/>
	<path class="st1" d="M47.1,11.3v10.4h2.1v-8.3h3.3v-2.1H47.1z M62,23.3V10.6c0-1.8-1.1-3.3-2.6-4.1c0.3,0.6,0.5,1.3,0.5,2v12.7
		c0,1.4-0.6,2.6-1.7,3.5c0.9,1,1.7,2.1,1.7,3.7v14.1c0,2.5-2.1,4.6-4.6,4.6H41.8v2.1h15.6c2.5,0,4.6-2.1,4.6-4.6V30.5
		c0-1.6-0.7-2.7-1.7-3.7C61.3,25.9,62,24.7,62,23.3L62,23.3z M47.1,29.1v10.5h2.1v-8.4h3.3v-2.1H47.1z M80.1,11.3v28.3h2.1V13.4h3.3
		v-2.1L80.1,11.3z M92.4,6.5c0.3,0.6,0.5,1.3,0.5,2v34c0,2.5-2.1,4.6-4.6,4.6H77.2c-0.7,0-1.4-0.2-2-0.5c0.7,1.5,2.3,2.6,4.1,2.6
		h11.1c2.5,0,4.6-2.1,4.6-4.6v-34C95,8.8,93.9,7.3,92.4,6.5L92.4,6.5z M113.1,11.3v10.4h2.1v-8.3h3.3v-2.1H113.1z M125.3,30.8
		c1.6-0.7,2.6-2.3,2.6-4.1V10.6c0-1.8-1.1-3.4-2.6-4.1c0.3,0.6,0.5,1.3,0.5,2v16.1c0,1.7-1,3.3-2.6,4.1l3.1,18.4h-5.7l0.4,2.1h7.4
		L125.3,30.8L125.3,30.8z M107.8,47.1v2.1h7.4V31.2h1.1l-0.3-2.1h-2.8v17.9H107.8z M145.1,11.3v28.3h2.1V13.4h3.3v-2.1L145.1,11.3z
		 M157.4,6.5c0.3,0.6,0.5,1.3,0.5,2v34c0,2.5-2.1,4.6-4.6,4.6h-11.1c-0.7,0-1.4-0.2-2-0.5c0.7,1.5,2.3,2.6,4.1,2.6h11.1
		c2.5,0,4.6-2.1,4.6-4.6v-34C160,8.8,158.9,7.3,157.4,6.5L157.4,6.5z M178.1,11.3v28.3h2.1V13.4h3.3v-2.1L178.1,11.3z M190.5,6.5
		c0.3,0.6,0.5,1.3,0.5,2v34c0,2.5-2.1,4.6-4.6,4.6h-13.6v2.1h15.6c2.5,0,4.6-2.1,4.6-4.6v-34C193,8.8,192,7.3,190.5,6.5L190.5,6.5z
		 M206.2,49.2h7.4V6h-2.1v41h-5.3L206.2,49.2z M246.5,6h-2.1v41h-5.9l0.6,2.1h7.4V6z M233.7,35.5l-2.1-7.2v18.8h-5.3v2.1h7.4V35.5z
		 M263.8,31.2h6.1v-2.1h-8.2c-0.7,0-1.4-0.2-2-0.5C260.5,30.2,262,31.2,263.8,31.2L263.8,31.2z M264.6,34.5v5.1h2.1V34L264.6,34.5z
		 M276.9,6.5c0.3,0.6,0.5,1.3,0.5,2v8.7l-5.4,1.2v2.6l7.5-1.7v-8.7C279.5,8.8,278.4,7.3,276.9,6.5z M276.9,24.3
		c0.3,0.6,0.5,1.3,0.5,2v16.2c0,2.5-2.1,4.6-4.6,4.6h-11.1c-0.7,0-1.4-0.2-2-0.5c0.7,1.5,2.3,2.6,4.1,2.6h11.1
		c2.5,0,4.6-2.1,4.6-4.6V28.4C279.5,26.6,278.4,25.1,276.9,24.3L276.9,24.3z M266.7,13.4h3.3v-2.1h-5.4v10.4h2.1L266.7,13.4z
		 M297.6,47.1h-5.3v2.1h7.4V33.6l-1.4-4.5h-0.7L297.6,47.1z M313.4,6h-2.8l-6.2,19.4l6.9,21.6h-6l0.6,1.8l0.1,0.2h7.5l-6.9-21.6
		L313.4,6z M332.9,49.2V6h-2.1v41h-5.3v2.1H332.9z M361.9,31.2l5.7-5.7l2.1,2.1l-5.7,5.7L361.9,31.2z M9.9,31.2l5.7-5.7l2.1,2.1
		L12,33.3L9.9,31.2z"/>
	<path class="st0" d="M55.9,17.2c0,1.4-0.6,2.6-1.7,3.5c0.9,1,1.7,2.1,1.7,3.7v14.1c0,2.5-2.1,4.6-4.6,4.6H35.7V0h15.6
		c2.5,0,4.6,2,4.6,4.6V17.2z M48.5,7.4h-5.4v10.4h5.4C48.5,17.8,48.5,7.4,48.5,7.4z M48.5,25.2h-5.4v10.5h5.4
		C48.5,35.7,48.5,25.2,48.5,25.2z M84.4,0c2.5,0,4.6,2,4.6,4.6v34c0,2.5-2.1,4.6-4.6,4.6H73.3c-2.5,0-4.6-2.1-4.6-4.6v-34
		c0-2.5,2-4.6,4.6-4.6C73.3,0,84.4,0,84.4,0z M81.5,7.4h-5.4v28.3h5.4V7.4z M115,43.1l-3-17.9h-2.8v17.9h-7.4V0h15.6
		c2.5,0,4.5,2,4.5,4.6v16.1c0,1.7-1,3.3-2.6,4.1l3.1,18.3L115,43.1L115,43.1z M114.5,7.4h-5.4v10.4h5.4V7.4z M149.4,0
		c2.5,0,4.6,2,4.6,4.6v34c0,2.5-2.1,4.6-4.6,4.6h-11.1c-2.5,0-4.6-2.1-4.6-4.6v-34c0-2.5,2-4.6,4.6-4.6L149.4,0L149.4,0z M146.5,7.4
		h-5.4v28.3h5.4L146.5,7.4L146.5,7.4z M182.4,0c2.5,0,4.6,2,4.6,4.6v34c0,2.5-2.1,4.6-4.6,4.6h-15.6V0L182.4,0L182.4,0z M179.5,7.4
		h-5.4v28.3h5.4V7.4z M200.2,0h7.4v43.1h-7.4V0z M240.4,0v43.1H233l-5.4-18.8v18.8h-7.4V0h7.3l5.4,17.7V0H240.4z M268.9,17.8
		c2.5,0,4.6,2,4.6,4.6v16.2c0,2.5-2.1,4.6-4.6,4.6h-11.1c-2.5,0-4.6-2.1-4.6-4.6v-8.9l7.4-1.7v7.7h5.4V25.2h-8.2
		c-2.5,0-4.6-2-4.6-4.6V4.6c0-2.5,2-4.6,4.6-4.6h11.1c2.5,0,4.6,2,4.6,4.6v8.7L266,15V7.4h-5.4v10.4H268.9L268.9,17.8z M300.5,21.5
		l6.9,21.6h-7.5l-0.1-0.2l-5.5-17.7h-0.7v17.9h-7.4V0h7.4v17.8h0.6L299.9,0h7.5L300.5,21.5L300.5,21.5z M319.5,0h7.4v43.1h-7.4V0z"
		/>
</g>
</svg>
