<?xml version="1.0" encoding="utf-8"?>
<svg version="1.1" id="Слой_1" xmlns="http://www.w3.org/2000/svg" xmlns:xlink="http://www.w3.org/1999/xlink" x="0px" y="0px"
	 viewBox="0 0 1366 321" style="enable-background:new 0 0 1366 321;" xml:space="preserve">
<g style="fill: #fff;">
	<path d="M133.43781,109.80518c-11.56344,6.14096-18.19228,18.17944-19.87468,36.11546
		c-0.72293,6.61107-1.0844,14.40085-1.0844,23.36885c0,20.7739,1.20291,35.17474,3.61367,43.19711
		c1.68289,4.72424,5.05904,15.34648,10.11807,31.86626c0.95996,3.77859,1.44537,7.08118,1.44537,9.91364
		c0,14.87144-6.38589,29.62044-19.15176,44.25978C97.42062,311.50546,82.00056,318,62.25032,318
		c-11.56344,0-21.80596-2.24582-30.71569-6.7276c-11.32642-5.66495-16.98395-13.57571-16.98395-23.72241
		c0-6.61108,2.04386-12.98511,6.14343-19.12015c1.44537,1.88632,3.85069,3.18701,7.22684,3.89511
		c-1.93078,4.95685-2.89074,8.85196-2.89074,11.68445c0,9.20551,4.45511,16.04965,13.37028,20.53638
		c6.74143,3.77267,15.29563,5.66495,25.65665,5.66495c10.59756,0,20.35466-3.42505,29.26983-10.26819
		c8.67271-6.84909,13.00881-15.46304,13.00881-25.84778c0-5.43283-2.1683-12.51401-6.50441-21.24449
		c-6.26738-12.97868-10.11807-23.83846-11.56344-32.57437c-0.96539-3.77318-1.56981-7.78929-1.80684-12.03848l-3.2522,3.89464
		l-3.2522,3.18703c-2.41076,2.83246-4.2176,4.95682-5.4205,6.37305l-5.78148,6.37355
		c-1.44537,1.41623-3.61367,4.13266-6.50441,8.14334l-6.50441,8.14384c-5.30199,6.84908-9.15861,12.74709-11.56344,17.7039
		c-18.06834-13.21719-28.54739-31.74527-31.43862-55.58965c-1.20785-9.43811-1.80683-19.59026-1.80683-30.45003
		c0-13.6873,0.84144-25.37172,2.52977-35.05328c0.23703-3.77316,0.95996-8.14383,2.1683-13.10065
		c2.16781-2.35693,4.45462-4.7193,6.86587-7.08167c1.68239-1.41623,3.85069-3.18652,6.50441-5.31087l8.67221-6.01949
		c0.47998-0.4701,1.32142-1.06217,2.52977-1.77029l1.44537-1.06218l1.80684-1.41624
		c0.72293-0.70811,2.04386-1.77029,3.97513-3.18702l2.52927-1.77029l2.52977-1.77029
		c4.57313-3.54059,8.90973-6.84365,13.00881-9.91414c3.61367-2.59445,6.62292-5.07286,9.03368-7.43523l3.61366-3.54108
		c0.47998,0.47603,1.80684,1.77078,3.97514,3.89513l2.52927,2.12435l2.89074,2.83247
		c15.41463,13.22263,26.49809,19.82827,33.24496,19.82827c1.44586,0,5.05904-1.29476,10.84101-3.89514
		C131.63098,104.4943,132.22948,106.97271,133.43781,109.80518z M91.88161,125.03019
		c-9.63809-5.1894-17.10789-10.50028-22.40445-15.93313c-0.96539-0.70811-2.29224-1.88634-3.97464-3.54058l-2.52976-2.12435
		l-2.52927-2.4789c-8.19273,6.84908-13.49472,12.86857-15.90004,18.05797c-2.65371,5.66494-4.33611,13.33868-5.05904,23.01479
		c-0.48541,9.44354-0.72244,18.41154-0.72244,26.90944c0,28.56369,6.50441,48.508,19.51322,59.83836
		c9.39515-11.33037,16.01856-18.99818,19.87468-23.01479l1.80684-1.77029l1.80683-1.77029
		c1.44537-1.41624,2.76679-2.83296,3.97514-4.24921c0-18.88164,0.95947-36.4695,2.89074-52.7567
		C89.35184,139.54758,90.43624,132.81998,91.88161,125.03019z"/>
	<path d="M219.07899,235.14685c-8.19273,4.4872-14.21715,8.85194-18.06834,13.10065
		c-3.85612,4.48721-7.71275,10.7388-11.56345,18.76608c-4.09908-7.78928-6.74686-12.39253-7.94977-13.80876
		c-3.1337-4.2487-6.86588-8.02187-11.20198-11.33037c-0.96539-0.70811-2.52977-1.77029-4.69757-3.18652l-5.78197-3.54108
		c7.94977-4.95683,13.96877-9.43811,18.06784-13.45473c2.64828-2.83247,6.50441-9.08405,11.56345-18.76559
		c5.78197,11.80591,12.16243,20.18182,19.15225,25.13914C211.24773,230.42804,214.7424,232.79041,219.07899,235.14685z"/>
	<path d="M363.62131,163.97861c0,18.17944-6.50443,35.64485-19.51321,52.40263c-2.41125,3.3085-9.63812,11.21432-21.68152,23.72292
		c-0.96539,0.94614-3.0152,3.18652-6.14294,6.72711c-3.61368,4.24919-7.83176,9.32254-12.64786,15.22549
		c-14.69711-8.73047-29.03281-15.6956-43.00156-20.89043c-5.302-1.64882-10.47955-3.06505-15.53859-4.2487
		c5.05904-4.24921,8.1873-8.02237,9.39565-11.33037c1.20241-2.83296,1.80682-7.55177,1.80682-14.16333v-12.03848
		c-0.24295-1.64833-0.36147-3.18652-0.36147-4.60277v-12.39253c0-9.43811-0.60442-27.37955-1.80682-53.81888
		c-0.72293-5.42742-2.77223-11.68443-6.14294-18.76609c21.1956-6.60564,40.47182-17.34937,57.81721-32.22081l3.61368,3.89513
		c2.64777,3.07048,7.10291,6.84908,13.37027,11.33037c11.3205,8.26532,20.71564,18.76559,28.18591,31.5122
		C359.40372,138.25282,363.62131,151.46953,363.62131,163.97861z M338.32611,184.16043
		c0-20.06035-7.35129-38.82643-22.04248-56.29728c-4.82202-5.89751-9.99957-10.73878-15.53857-14.51739
		c-3.37665-2.35644-9.51959-5.42692-18.42932-9.20552c-0.24295,5.43285-0.36148,11.09779-0.36148,16.9953v55.94373
		c0,2.83246,0.11853,5.54889,0.36148,8.14334l0.72293,14.87144c0,3.06999,0.23703,10.03561,0.72244,20.88995
		c1.20291,0.47603,3.00925,1.30019,5.4205,2.47841l2.89072,1.41673l3.61368,1.41623
		c6.01898,2.83247,11.56345,5.43285,16.62247,7.78929l3.97516,1.77029C330.97482,222.40024,338.32611,205.17235,338.32611,184.16043
		z"/>
	<path d="M533.82025,227.71161c-10.604,10.62225-20.5976,22.0741-29.99277,34.34515
		c-6.0249-4.48669-12.52933-10.38472-19.5137-17.7039c-1.20834-2.83247-1.80682-6.84364-1.80682-12.03848V212.4866
		c0-1.41673,0.11899-4.7193,0.36145-9.91414v-7.78978c0.23703-3.54059,0.36148-6.84364,0.36148-9.91412l1.08389-32.92844
		c0.23752-3.30307,0.36148-6.60612,0.36148-9.91414v-7.43571c0-13.45473-5.90591-23.4849-17.70639-30.09597l-9.75662,4.2487
		l-13.00931,6.37305l-8.67221,4.2492l-0.36145,18.41154c-0.24295,6.37355-0.60443,16.40915-1.08392,30.09645l-0.36145,11.68443
		c-0.24295,2.60037-0.36148,6.61107-0.36148,12.03848v15.22501c0,14.40085,1.6824,23.49033,5.05905,27.2635
		c0.72293,0.94612,2.76678,2.60037,6.14294,4.95731c-9.15811,5.66495-15.78104,11.09828-19.87469,16.28719l-5.78146,6.7276
		c-3.85663-4.95682-9.75662-11.09283-17.70688-18.41202c-1.20834-0.9407-3.1337-2.12436-5.78149-3.54059
		c6.01901-6.84364,9.75662-15.57907,11.202-26.20132c1.44537-9.67612,2.1683-32.80745,2.1683-69.39844
		c0-18.41203-3.0152-30.2125-9.03418-35.40733c-2.65372-2.35693-6.14294-4.7193-10.47955-7.08167
		c9.15271-6.13504,18.30539-14.39492,27.4635-24.78509c10.59805,7.78979,17.3454,18.29599,20.23615,31.5127l19.15176-9.20602
		c8.90973-4.48129,15.7756-8.49741,20.5976-12.03848l14.09271-9.91413c6.98441,11.09827,18.06836,20.30429,33.245,27.61804
		c-1.44537,0.94614-2.5293,1.65425-3.2522,2.12435c-3.85614,2.36237-6.38593,5.5489-7.58832,9.56008l-0.36151,1.77029
		l-0.36145,2.47841c-0.24243,2.36237-0.48541,4.95683-0.72241,7.78978l-0.72293,10.97632
		c-0.48541,9.91364-0.72244,18.29549-0.72244,25.13914v41.07227c0,7.08167,0.47998,11.45184,1.44537,13.10066
		c1.44537,4.95682,4.21216,7.43573,8.31122,7.43573c2.64832,0,5.539-1.53278,8.67273-4.60326
		C529.48364,224.40855,531.16656,226.29538,533.82025,227.71161z"/>
	<path d="M648.00836,100.2451c-5.302,3.3085-10.24255,7.43573-14.81567,12.39255c-0.72296,0.70811-1.68829,1.77029-2.89124,3.18702
		l-1.44537,1.77029l-1.80682,2.12435l-28.90839-17.70392l-4.69757,2.12485v84.97751c0,27.38496,9.27075,41.07227,27.82446,41.07227
		c5.78149,0,11.92493-3.4191,18.42932-10.26819c0.47998,1.65425,1.92535,3.77861,4.33612,6.37355l-3.61365,3.54059
		c-0.72247,0.70811-1.93079,1.77029-3.61371,3.18652l-2.52924,2.12436l-2.89075,2.4789l-11.92493,10.62175
		c-0.7229,0.47603-5.302,5.19533-13.73175,14.16284c-17.10791-8.72949-28.30988-17.70341-33.60645-26.90944
		c-5.05902-9.20552-7.58826-25.49319-7.58826-48.86205l-0.36151-74.35526c17.10248-8.49741,33.36353-20.18183,48.78357-35.05328
		c9.87512,8.0278,18.18634,13.80927,24.93372,17.34986c0.95996,0.70811,2.5293,1.65425,4.69757,2.83247l2.5293,1.41624
		L648.00836,100.2451z"/>
	<path d="M781.34619,158.66724c0,20.06578-0.72296,38.47781-2.16882,55.2356c-0.24292,2.36237-0.48486,5.31088-0.7229,8.85147
		l-0.72192,4.60326l-0.36151,4.95682c-6.74731,8.97343-13.00879,16.64174-18.79126,23.01479
		c-0.72192,0.70813-1.93079,1.88635-3.61267,3.54059l-2.16882,2.83246l-2.89069,2.83249l-18.42883,19.12015
		c-9.63812,9.4386-17.3454,16.28769-23.12689,20.53638l-2.89172,2.12436l-3.2522,2.12433
		c-2.65375,1.88635-5.05853,3.54059-7.22638,4.95685c-0.7229-2.12436-2.16876-4.13217-4.33661-6.01852
		c25.05176-17.47183,41.79279-34.93771,50.22894-52.40263c8.42926-17.70392,12.64734-43.19762,12.64734-76.4801
		c0-21.00648-1.93079-35.7614-5.78149-44.25929c-4.09955-9.20602-12.28687-17.936-24.57275-26.20132l-18.79028,13.45472
		l-0.7229,22.66074c-0.24298,2.12434-0.36151,6.37305-0.36151,12.7466v59.13025c0,4.48671,1.32147,8.73541,3.97516,12.7466
		c3.12775,4.2487,6.62292,6.37306,10.47955,6.37306c2.40485,0,5.89996-1.88634,10.47955-5.66495
		c0.72192,1.18365,1.44482,2.12436,2.16779,2.83247c0.72296,1.18414,1.68286,2.24632,2.89075,3.18652
		c-6.50439,4.48721-17.46985,13.33867-32.88348,26.55586c-4.57959-3.77859-13.25177-9.56006-26.01813-17.34984l-2.5293-1.06218
		l-2.52972-1.41623c-2.41077-0.9407-4.46008-1.77029-6.14294-2.47842c1.68286-1.6488,3.2522-3.18652,4.69757-4.60324
		c0.95996-0.94022,1.80682-1.88634,2.52972-2.83247c2.16785-2.83247,3.37073-5.89752,3.61371-9.20602
		c1.20239-6.37305,1.92535-17.81946,2.16779-34.34467v-35.40733c0-13.45471,0.11853-22.42271,0.36145-26.90993l0.36145-9.55958
		c0.23706-10.14672,0.23706-23.01479,0-38.59436c-0.24292-18.41154-2.16827-32.33636-5.78192-41.78039
		c-1.68787-4.48129-4.09912-10.03018-7.22687-16.64124c2.64777-0.70812,4.93463-2.00288,6.86591-3.89514
		c5.29602,7.78978,9.15216,14.75491,11.56342,20.89044c8.42975-17.4659,22.40442-28.91231,41.91766-34.34516
		c0.47998,2.60038,1.56342,4.95731,3.2522,7.08167c-10.36102,5.66494-16.74689,14.51689-19.15173,26.55538
		c-1.68884,8.73542-2.77319,19.71173-3.25317,32.92893c-0.242,4.48672-0.36053,14.40085-0.36053,29.74191
		c-0.24292,2.36237-0.36145,6.49503-0.36145,12.39254l19.51324-13.80878c4.33661-2.59445,9.87512-7.08167,16.6225-13.45472
		c1.44482-1.88634,3.2522-4.01118,5.41998-6.37354c1.68286,6.61156,6.50439,14.28481,14.45465,23.01479
		c9.39514,10.39016,15.29517,18.76609,17.70691,25.13914C780.26178,131.64175,781.34619,142.61806,781.34619,158.66724z"/>
	<path d="M957.32562,220.27589c-10.841,11.8064-18.79126,21.24449-23.84979,28.32616l-2.16882,2.83199l-2.16779,3.18701
		c-1.93079,2.83247-3.49518,5.31139-4.69806,7.43571c-8.91516-9.43858-14.81519-18.05797-17.70593-25.84775
		c-2.89069-7.08116-5.05951-17.11134-6.50439-30.09596l-10.47955,12.03848c-1.2088,1.41624-3.2522,3.77861-6.14288,7.08167
		l-1.80737,2.12436l-2.16779,2.12434c-1.68884,1.89227-3.2522,3.66255-4.69806,5.31088
		c-0.9649,0.94614-4.33563,4.60326-10.1181,10.9763c-1.20782,1.18414-3.13367,3.42406-5.78143,6.72762l-0.72296,1.06168
		l-1.44489,1.41722l-6.14294,7.08116c-6.74731-5.66492-11.5639-10.73828-14.45465-15.22549
		c-2.41077-3.77267-5.05951-10.03018-7.95026-18.76559c-5.05853-15.34155-7.58783-33.51508-7.58783-54.52748
		c0-22.42273,1.80634-40.71822,5.41998-54.88106c5.78149-5.1894,11.92444-9.91413,18.42883-14.16283
		c1.92584-1.17871,5.17804-3.30306,9.75659-6.37355l3.25323-1.77029l3.2522-2.47841
		c2.64777-1.64882,5.05853-3.18653,7.22632-4.60326c5.05957-3.30257,9.75665-6.019,14.09326-8.14335
		c1.20288-0.70811,3.4892-1.88683,6.86584-3.54108l2.16779,1.77078l1.80737,1.77029l3.2522,2.83247
		c9.63214,8.26532,17.46393,13.80878,23.48834,16.64125c3.37073,1.41623,6.50439,2.12435,9.39514,2.12435
		c4.33661,0,9.87512-2.2404,16.6225-6.72711c0.95996,1.65424,2.52924,3.77859,4.69806,6.37305
		c-0.72296,0.70861-1.80737,1.53821-3.2522,2.4789l-4.33661,3.18653c-4.09961,2.83247-6.62885,4.84077-7.58881,6.01899
		c-3.13373,2.60038-4.82153,5.43285-5.05853,8.4979c-0.72296,3.7786-1.08441,8.4979-1.08441,14.16283v32.22081l-0.36145,7.43573
		c-0.24298,14.16283,0.47998,26.20131,2.16779,36.11545c0.95996,6.61107,3.73218,9.91364,8.31171,9.91364
		c1.44586,0,3.48926-0.9402,6.14294-2.83246l7.22736-5.31088C953.58752,216.61926,955.15686,218.62756,957.32562,220.27589z
		 M902.03717,122.19772c-8.91516-4.48129-17.70685-9.79216-26.37909-15.93313c-3.13367-2.35693-6.50439-4.95731-10.11804-7.78978
		c-2.41077,2.36237-5.54443,6.7276-9.39514,13.10065c-1.93079,4.01662-3.85663,11.8064-5.78149,23.36885
		c-1.44586,9.91414-2.16876,19.59569-2.16876,29.03429c0,21.48203,3.37067,40.36415,10.11804,56.65134
		c0.72296,1.65425,3.00928,5.78691,6.86591,12.39255l3.61365-3.89464c1.68286-1.88684,8.06879-8.968,19.15173-21.24451
		c0.72296-0.70811,1.80731-1.88634,3.2522-3.54059l2.16882-2.47841l2.52924-2.83296
		c1.20294-1.17822,2.64783-2.94852,4.33661-5.31088v-29.7419c-0.24292-1.41673-0.36145-2.711-0.36145-3.89514v-2.83246
		C899.86938,153.0023,900.59235,141.31787,902.03717,122.19772z"/>
	<path d="M1070.42981,103.07806c-9.15808,7.55721-15.41956,13.80878-18.79028,18.7656l-2.89075,3.54058l-2.89075,3.89514
		c-4.57959-5.42741-8.31177-9.20602-11.20251-11.33037c-3.37659-2.59495-8.07361-4.83534-14.09314-6.72761v100.91064
		c0,3.7791,0.11847,6.01949,0.36145,6.7276c0.237,0.70813,1.56439,2.24632,3.9751,4.60277
		c1.92493,2.36237,4.69714,4.13315,8.31079,5.31137c1.92578,1.41623,3.9751,2.12436,6.14392,2.12436
		c1.9248,0,5.177-1.88634,9.75659-5.66495c0.23706-0.23257,0.72192-0.70811,1.44495-1.41672l1.08435-0.70813l1.44482-1.06216
		c0.72302,0.94612,2.53027,2.71642,5.42102,5.31137c-13.49475,12.98462-24.81567,24.55251-33.9679,34.6992l-16.98395-12.03897
		c-8.43518-5.66493-14.33612-9.4381-17.70685-11.32986c-1.44489-0.4706-4.94006-2.24089-10.47858-5.31137
		c3.37073-2.12436,6.98438-4.71881,10.84003-7.78929c2.16882-3.30307,3.2522-15.10353,3.2522-35.40733v-50.98691
		c-0.72192-14.87095-3.49512-24.54707-8.31073-29.03378c-2.41077-2.35693-5.90594-4.83534-10.47955-7.43572l6.50439-7.43523
		c2.40485-3.30306,6.98444-9.20602,13.73175-17.70391c11.07806,5.90344,19.38879,13.57668,24.93323,23.01479
		c8.43024-6.13504,14.57318-11.44641,18.42987-15.93313c0.7229-0.70812,1.68286-1.77029,2.89075-3.18653l1.4458-1.77029
		l1.8064-2.12484C1051.63953,90.56898,1060.31177,99.06689,1070.42981,103.07806z"/>
	<path d="M1205.21204,163.97861c0,18.17944-6.50439,35.64485-19.51318,52.40263c-2.41077,3.3085-9.63818,11.21432-21.68201,23.72292
		c-0.96497,0.94614-3.01428,3.18652-6.14294,6.72711c-3.61365,4.24919-7.83081,9.32254-12.64734,15.22549
		c-14.69666-8.73047-29.03284-15.6956-43.00159-20.89043c-5.30151-1.64882-10.47961-3.06505-15.53809-4.2487
		c5.05847-4.24921,8.18628-8.02237,9.39514-11.33037c1.20288-2.83296,1.80627-7.55177,1.80627-14.16333v-12.03848
		c-0.24292-1.64833-0.36145-3.18652-0.36145-4.60277v-12.39253c0-9.43811-0.60339-27.37955-1.80627-53.81888
		c-0.72302-5.42742-2.77222-11.68443-6.14294-18.76609c21.19604-6.60564,40.47229-17.34937,57.81665-32.22081l3.61377,3.89513
		c2.64868,3.07048,7.10278,6.84908,13.37024,11.33037c11.32092,8.26532,20.71606,18.76559,28.1864,31.5122
		C1200.9939,138.25282,1205.21204,151.46953,1205.21204,163.97861z M1179.91736,184.16043
		c0-20.06035-7.35181-38.82643-22.04346-56.29728c-4.82153-5.89751-9.99963-10.73878-15.53809-14.51739
		c-3.37671-2.35644-9.51965-5.42692-18.42981-9.20552c-0.24194,5.43285-0.36047,11.09779-0.36047,16.9953v55.94373
		c0,2.83246,0.11853,5.54889,0.36047,8.14334l0.7229,14.87144c0,3.06999,0.23706,10.03561,0.7229,20.88995
		c1.203,0.47603,3.00928,1.30019,5.42004,2.47841l2.89172,1.41673l3.61267,1.41623
		c6.01953,2.83247,11.56396,5.43285,16.62244,7.78929l3.97522,1.77029
		C1172.56555,222.40024,1179.91736,205.17235,1179.91736,184.16043z"/>
	<path d="M1357.34363,165.04079c0,14.63837-6.02441,30.57199-18.06836,47.79988c-2.65369,3.77859-7.71228,8.97343-15.17664,15.57906
		l-9.39514,8.49791l-9.39612,8.85146l-1.08337,1.06218l-1.08435,1.06218c-1.20789,1.18414-2.41077,2.36237-3.61377,3.54059
		c-3.13367,3.30356-6.50439,6.84413-10.11804,10.62273c-8.67224-8.26036-16.26099-13.92531-22.76538-16.99579
		c-5.05859-2.59445-13.73181-5.78148-26.0177-9.56007c3.61377-3.06456,5.90002-5.31088,6.86597-6.72711
		c2.16772-2.83247,3.37073-5.89752,3.61365-9.20601c0.23706-1.17822,0.36145-4.12723,0.36145-8.85196l0.72192-77.54179
		c0-4.48128-0.72192-9.20601-2.16785-14.16283c-1.93066-6.84364-4.57947-10.26819-7.9502-10.26819
		c-1.93079,0-4.94006,1.53821-9.03369,4.60276c-0.7229-2.35644-2.04932-4.48129-3.9751-6.37305
		c4.57361-4.01118,7.9502-7.43572,10.11804-10.26819l5.42102-5.31088c3.37073-3.30306,7.7063-8.02236,13.00879-14.16333
		c7.94922,6.37355,13.12732,11.09828,15.53809,14.16333c4.09363,5.19484,6.62292,11.56789,7.58875,19.11966
		c10.84106-7.31375,19.75024-14.04136,26.7406-20.18233c3.37073-3.30257,8.06775-7.55127,14.09326-12.7466l0.72192,2.83296
		c0.23694,1.41623,1.4458,4.95682,3.61365,10.62225c2.16882,3.30801,7.10291,10.62176,14.81616,21.95213
		C1351.79919,129.75493,1357.34363,147.10478,1357.34363,165.04079z M1333.49377,181.68202
		c0-10.38423-2.29224-20.53638-6.86584-30.45052l-0.7229-1.41623c1.4458,0,1.20288-1.06218-0.7229-3.18652
		c-0.72192-0.94022-1.44495-1.77029-2.16785-2.47841c-0.48596-0.70811-0.96594-1.41624-1.44482-2.12436l-1.44592-1.77029
		c-0.96582-1.41672-4.94006-7.90582-11.92444-19.47421c-1.93176-3.30306-3.9751-8.14384-6.14392-14.51689
		c-6.50439,4.95682-13.73169,9.79759-21.68103,14.51689c0,0.70812-0.12439,2.36237-0.36145,4.95683
		c-0.24292,2.36237-0.36145,4.01662-0.36145,4.95731v26.20132c-0.24292,2.83247-0.36145,5.78691-0.36145,8.85196v6.37305
		c0,1.18414-0.12451,3.89514-0.36145,8.14384c-0.24292,4.2487-0.36145,7.08118-0.36145,8.49789v15.57907
		c-0.24207,2.83247-0.36047,5.78691-0.36047,8.85196v6.72711l4.33557,2.12436c1.20288,0.47603,2.28735,0.94612,3.2522,1.41623
		c1.4458,0.70811,2.89075,1.41673,4.33655,2.12485l7.95032,4.2487l1.8064,0.70811l1.80627,1.06218
		c1.9259,0.70811,3.49023,1.41623,4.69812,2.12434c15.65649-15.34105,24.32971-28.08765,26.01758-38.23981
		C1333.13232,191.48012,1333.49377,186.87686,1333.49377,181.68202z"/>
</g>
<g>
</g>
<g>
</g>
<g>
</g>
<g>
</g>
<g>
</g>
<g>
</g>
<g>
</g>
<g>
</g>
<g>
</g>
<g>
</g>
<g>
</g>
<g>
</g>
<g>
</g>
<g>
</g>
<g>
</g>
</svg>
